<svg width="32" height="32" viewBox="0 0 32 32" fill="none" xmlns="http://www.w3.org/2000/svg">
<circle cx="15.8462" cy="16.1538" r="15.8462" fill="#3E3AFE"/>
<mask id="mask0_894_7277" style="mask-type:alpha" maskUnits="userSpaceOnUse" x="10" y="8" width="8" height="19">
<path fill-rule="evenodd" clip-rule="evenodd" d="M10.5625 8.73123C10.5625 8.45509 10.7864 8.23123 11.0625 8.23123H11.7578H15.9595H16.6651C16.9412 8.23123 17.1651 8.45509 17.1651 8.73123V11.8552C17.1651 12.0981 16.9905 12.3059 16.7513 12.3477L15.9595 12.4863V22.4632L16.7513 22.6018C16.9905 22.6437 17.1651 22.8514 17.1651 23.0943V26.2183C17.1651 26.4944 16.9412 26.7183 16.6651 26.7183H15.9595V26.7185H11.7578V26.7183H11.0625C10.7864 26.7183 10.5625 26.4944 10.5625 26.2183V23.0943C10.5625 22.8514 10.7371 22.6437 10.9763 22.6018L11.7578 22.465V12.4845L10.9763 12.3477C10.7371 12.3059 10.5625 12.0981 10.5625 11.8552V8.73123Z" fill="white"/>
</mask>
<g mask="url(#mask0_894_7277)">
<rect width="0.695438" height="14.0724" transform="matrix(0.603679 0.797227 -0.818656 0.574284 19.2344 1.3699)" fill="white"/>
<rect width="0.695438" height="14.0724" transform="matrix(0.603679 0.797227 -0.818656 0.574284 19.2344 9.60233)" fill="white"/>
<rect width="0.695438" height="14.0724" transform="matrix(0.603679 0.797227 -0.818656 0.574284 19.2344 17.8347)" fill="white"/>
<rect width="0.695438" height="14.0724" transform="matrix(0.603679 0.797227 -0.818656 0.574284 19.2344 5.48611)" fill="white"/>
<rect width="0.695438" height="14.0724" transform="matrix(0.603679 0.797227 -0.818656 0.574284 19.2344 13.7185)" fill="white"/>
<rect width="0.695438" height="14.0724" transform="matrix(0.603679 0.797227 -0.818656 0.574284 19.2344 21.951)" fill="white"/>
<rect width="0.695438" height="14.0724" transform="matrix(0.603679 0.797227 -0.818656 0.574284 19.2344 3.4285)" fill="white"/>
<rect width="0.695438" height="14.0724" transform="matrix(0.603679 0.797227 -0.818656 0.574284 19.2344 11.6609)" fill="white"/>
<rect width="0.695438" height="14.0724" transform="matrix(0.603679 0.797227 -0.818656 0.574284 19.2344 19.8933)" fill="white"/>
<rect width="0.695438" height="14.0724" transform="matrix(0.603679 0.797227 -0.818656 0.574284 19.2344 7.54471)" fill="white"/>
<rect width="0.695438" height="14.0724" transform="matrix(0.603679 0.797227 -0.818656 0.574284 19.2344 15.7771)" fill="white"/>
<rect width="0.695438" height="14.0724" transform="matrix(0.603679 0.797227 -0.818656 0.574284 19.2344 24.0096)" fill="white"/>
</g>
<mask id="path-15-outside-1_894_7277" maskUnits="userSpaceOnUse" x="14.2109" y="4.58984" width="9" height="20" fill="black">
<rect fill="white" x="14.2109" y="4.58984" width="9" height="20"/>
<path fill-rule="evenodd" clip-rule="evenodd" d="M15.2109 6.08984C15.2109 5.8137 15.4348 5.58984 15.7109 5.58984H16.3281H20.2202H20.827C21.1032 5.58984 21.327 5.8137 21.327 6.08984V9.0646C21.327 9.30625 21.1542 9.51331 20.9165 9.55654L20.2202 9.68313V19.2893L20.9165 19.4159C21.1542 19.4592 21.327 19.6662 21.327 19.9079V22.8826C21.327 23.1588 21.1032 23.3826 20.827 23.3826H15.7109C15.4348 23.3826 15.2109 23.1588 15.2109 22.8826V19.9079C15.2109 19.6662 15.3837 19.4592 15.6215 19.4159L16.3281 19.2875V9.68502L15.6215 9.55654C15.3837 9.51331 15.2109 9.30625 15.2109 9.0646V6.08984Z"/>
</mask>
<path fill-rule="evenodd" clip-rule="evenodd" d="M15.2109 6.08984C15.2109 5.8137 15.4348 5.58984 15.7109 5.58984H16.3281H20.2202H20.827C21.1032 5.58984 21.327 5.8137 21.327 6.08984V9.0646C21.327 9.30625 21.1542 9.51331 20.9165 9.55654L20.2202 9.68313V19.2893L20.9165 19.4159C21.1542 19.4592 21.327 19.6662 21.327 19.9079V22.8826C21.327 23.1588 21.1032 23.3826 20.827 23.3826H15.7109C15.4348 23.3826 15.2109 23.1588 15.2109 22.8826V19.9079C15.2109 19.6662 15.3837 19.4592 15.6215 19.4159L16.3281 19.2875V9.68502L15.6215 9.55654C15.3837 9.51331 15.2109 9.30625 15.2109 9.0646V6.08984Z" fill="white"/>
<path d="M20.9165 9.55654L20.7376 8.57267H20.7376L20.9165 9.55654ZM20.2202 9.68313L20.0413 8.69926L19.2202 8.84856V9.68313H20.2202ZM20.2202 19.2893H19.2202V20.1239L20.0413 20.2732L20.2202 19.2893ZM20.9165 19.4159L21.0953 18.4321H21.0953L20.9165 19.4159ZM15.6215 19.4159L15.4426 18.4321H15.4426L15.6215 19.4159ZM16.3281 19.2875L16.507 20.2713L17.3281 20.122V19.2875H16.3281ZM16.3281 9.68502H17.3281V8.85044L16.507 8.70115L16.3281 9.68502ZM15.6215 9.55654L15.4426 10.5404H15.4426L15.6215 9.55654ZM15.7109 4.58984C14.8825 4.58984 14.2109 5.26142 14.2109 6.08984H16.2109C16.2109 6.36599 15.9871 6.58984 15.7109 6.58984V4.58984ZM16.3281 4.58984H15.7109V6.58984H16.3281V4.58984ZM20.2202 4.58984H16.3281V6.58984H20.2202V4.58984ZM20.827 4.58984H20.2202V6.58984H20.827V4.58984ZM22.327 6.08984C22.327 5.26142 21.6554 4.58984 20.827 4.58984V6.58984C20.5509 6.58984 20.327 6.36599 20.327 6.08984H22.327ZM22.327 9.0646V6.08984H20.327V9.0646H22.327ZM21.0953 10.5404C21.8086 10.4107 22.327 9.78953 22.327 9.0646H20.327C20.327 8.82296 20.4998 8.61589 20.7376 8.57267L21.0953 10.5404ZM20.3991 10.667L21.0953 10.5404L20.7376 8.57267L20.0413 8.69926L20.3991 10.667ZM21.2202 19.2893V9.68313H19.2202V19.2893H21.2202ZM20.0413 20.2732L20.7376 20.3998L21.0953 18.4321L20.3991 18.3055L20.0413 20.2732ZM20.7376 20.3998C20.4998 20.3566 20.327 20.1495 20.327 19.9079H22.327C22.327 19.1829 21.8086 18.5617 21.0953 18.4321L20.7376 20.3998ZM20.327 19.9079V22.8826H22.327V19.9079H20.327ZM20.327 22.8826C20.327 22.6065 20.5509 22.3826 20.827 22.3826V24.3826C21.6554 24.3826 22.327 23.7111 22.327 22.8826H20.327ZM20.827 22.3826H15.7109V24.3826H20.827V22.3826ZM15.7109 22.3826C15.9871 22.3826 16.2109 22.6065 16.2109 22.8826H14.2109C14.2109 23.7111 14.8825 24.3826 15.7109 24.3826V22.3826ZM16.2109 22.8826V19.9079H14.2109V22.8826H16.2109ZM16.2109 19.9079C16.2109 20.1495 16.0381 20.3566 15.8004 20.3998L15.4426 18.4321C14.7294 18.5617 14.2109 19.1829 14.2109 19.9079H16.2109ZM15.8004 20.3998L16.507 20.2713L16.1492 18.3036L15.4426 18.4321L15.8004 20.3998ZM15.3281 9.68502V19.2875H17.3281V9.68502H15.3281ZM15.4426 10.5404L16.1492 10.6689L16.507 8.70115L15.8004 8.57267L15.4426 10.5404ZM14.2109 9.0646C14.2109 9.78953 14.7294 10.4107 15.4426 10.5404L15.8004 8.57267C16.0381 8.61589 16.2109 8.82296 16.2109 9.0646H14.2109ZM14.2109 6.08984V9.0646H16.2109V6.08984H14.2109Z" fill="#3E3AFE" mask="url(#path-15-outside-1_894_7277)"/>
</svg>
