<svg width="118" height="34" viewBox="0 0 118 34" fill="none" xmlns="http://www.w3.org/2000/svg">
<circle cx="15.8462" cy="18.1538" r="15.8462" fill="#3E3AFE"/>
<mask id="mask0_894_7276" style="mask-type:alpha" maskUnits="userSpaceOnUse" x="10" y="10" width="8" height="19">
<path fill-rule="evenodd" clip-rule="evenodd" d="M10.5625 10.7312C10.5625 10.4551 10.7864 10.2312 11.0625 10.2312H11.7578H15.9595H16.6651C16.9412 10.2312 17.1651 10.4551 17.1651 10.7312V13.8552C17.1651 14.0981 16.9905 14.3059 16.7513 14.3477L15.9595 14.4863V24.4632L16.7513 24.6018C16.9905 24.6437 17.1651 24.8514 17.1651 25.0943V28.2183C17.1651 28.4944 16.9412 28.7183 16.6651 28.7183H15.9595V28.7185H11.7578V28.7183H11.0625C10.7864 28.7183 10.5625 28.4944 10.5625 28.2183V25.0943C10.5625 24.8514 10.7371 24.6437 10.9763 24.6018L11.7578 24.465V14.4845L10.9763 14.3477C10.7371 14.3059 10.5625 14.0981 10.5625 13.8552V10.7312Z" fill="white"/>
</mask>
<g mask="url(#mask0_894_7276)">
<rect width="0.695438" height="14.0724" transform="matrix(0.603679 0.797227 -0.818656 0.574284 19.2344 3.3699)" fill="white"/>
<rect width="0.695438" height="14.0724" transform="matrix(0.603679 0.797227 -0.818656 0.574284 19.2344 11.6023)" fill="white"/>
<rect width="0.695438" height="14.0724" transform="matrix(0.603679 0.797227 -0.818656 0.574284 19.2344 19.8347)" fill="white"/>
<rect width="0.695438" height="14.0724" transform="matrix(0.603679 0.797227 -0.818656 0.574284 19.2344 7.48611)" fill="white"/>
<rect width="0.695438" height="14.0724" transform="matrix(0.603679 0.797227 -0.818656 0.574284 19.2344 15.7185)" fill="white"/>
<rect width="0.695438" height="14.0724" transform="matrix(0.603679 0.797227 -0.818656 0.574284 19.2344 23.951)" fill="white"/>
<rect width="0.695438" height="14.0724" transform="matrix(0.603679 0.797227 -0.818656 0.574284 19.2344 5.4285)" fill="white"/>
<rect width="0.695438" height="14.0724" transform="matrix(0.603679 0.797227 -0.818656 0.574284 19.2344 13.6609)" fill="white"/>
<rect width="0.695438" height="14.0724" transform="matrix(0.603679 0.797227 -0.818656 0.574284 19.2344 21.8933)" fill="white"/>
<rect width="0.695438" height="14.0724" transform="matrix(0.603679 0.797227 -0.818656 0.574284 19.2344 9.54471)" fill="white"/>
<rect width="0.695438" height="14.0724" transform="matrix(0.603679 0.797227 -0.818656 0.574284 19.2344 17.7771)" fill="white"/>
<rect width="0.695438" height="14.0724" transform="matrix(0.603679 0.797227 -0.818656 0.574284 19.2344 26.0096)" fill="white"/>
</g>
<mask id="path-15-outside-1_894_7276" maskUnits="userSpaceOnUse" x="14.2109" y="6.58984" width="9" height="20" fill="black">
<rect fill="white" x="14.2109" y="6.58984" width="9" height="20"/>
<path fill-rule="evenodd" clip-rule="evenodd" d="M15.2109 8.08984C15.2109 7.8137 15.4348 7.58984 15.7109 7.58984H16.3281H20.2202H20.827C21.1032 7.58984 21.327 7.8137 21.327 8.08984V11.0646C21.327 11.3062 21.1542 11.5133 20.9165 11.5565L20.2202 11.6831V21.2893L20.9165 21.4159C21.1542 21.4592 21.327 21.6662 21.327 21.9079V24.8826C21.327 25.1588 21.1032 25.3826 20.827 25.3826H15.7109C15.4348 25.3826 15.2109 25.1588 15.2109 24.8826V21.9079C15.2109 21.6662 15.3837 21.4592 15.6215 21.4159L16.3281 21.2875V11.685L15.6215 11.5565C15.3837 11.5133 15.2109 11.3062 15.2109 11.0646V8.08984Z"/>
</mask>
<path fill-rule="evenodd" clip-rule="evenodd" d="M15.2109 8.08984C15.2109 7.8137 15.4348 7.58984 15.7109 7.58984H16.3281H20.2202H20.827C21.1032 7.58984 21.327 7.8137 21.327 8.08984V11.0646C21.327 11.3062 21.1542 11.5133 20.9165 11.5565L20.2202 11.6831V21.2893L20.9165 21.4159C21.1542 21.4592 21.327 21.6662 21.327 21.9079V24.8826C21.327 25.1588 21.1032 25.3826 20.827 25.3826H15.7109C15.4348 25.3826 15.2109 25.1588 15.2109 24.8826V21.9079C15.2109 21.6662 15.3837 21.4592 15.6215 21.4159L16.3281 21.2875V11.685L15.6215 11.5565C15.3837 11.5133 15.2109 11.3062 15.2109 11.0646V8.08984Z" fill="white"/>
<path d="M20.9165 11.5565L20.7376 10.5727H20.7376L20.9165 11.5565ZM20.2202 11.6831L20.0413 10.6993L19.2202 10.8486V11.6831H20.2202ZM20.2202 21.2893H19.2202V22.1239L20.0413 22.2732L20.2202 21.2893ZM20.9165 21.4159L21.0953 20.4321H21.0953L20.9165 21.4159ZM15.6215 21.4159L15.4426 20.4321H15.4426L15.6215 21.4159ZM16.3281 21.2875L16.507 22.2713L17.3281 22.122V21.2875H16.3281ZM16.3281 11.685H17.3281V10.8504L16.507 10.7011L16.3281 11.685ZM15.6215 11.5565L15.4426 12.5404H15.4426L15.6215 11.5565ZM15.7109 6.58984C14.8825 6.58984 14.2109 7.26142 14.2109 8.08984H16.2109C16.2109 8.36599 15.9871 8.58984 15.7109 8.58984V6.58984ZM16.3281 6.58984H15.7109V8.58984H16.3281V6.58984ZM20.2202 6.58984H16.3281V8.58984H20.2202V6.58984ZM20.827 6.58984H20.2202V8.58984H20.827V6.58984ZM22.327 8.08984C22.327 7.26142 21.6554 6.58984 20.827 6.58984V8.58984C20.5509 8.58984 20.327 8.36599 20.327 8.08984H22.327ZM22.327 11.0646V8.08984H20.327V11.0646H22.327ZM21.0953 12.5404C21.8086 12.4107 22.327 11.7895 22.327 11.0646H20.327C20.327 10.823 20.4998 10.6159 20.7376 10.5727L21.0953 12.5404ZM20.3991 12.667L21.0953 12.5404L20.7376 10.5727L20.0413 10.6993L20.3991 12.667ZM21.2202 21.2893V11.6831H19.2202V21.2893H21.2202ZM20.0413 22.2732L20.7376 22.3998L21.0953 20.4321L20.3991 20.3055L20.0413 22.2732ZM20.7376 22.3998C20.4998 22.3566 20.327 22.1495 20.327 21.9079H22.327C22.327 21.1829 21.8086 20.5617 21.0953 20.4321L20.7376 22.3998ZM20.327 21.9079V24.8826H22.327V21.9079H20.327ZM20.327 24.8826C20.327 24.6065 20.5509 24.3826 20.827 24.3826V26.3826C21.6554 26.3826 22.327 25.7111 22.327 24.8826H20.327ZM20.827 24.3826H15.7109V26.3826H20.827V24.3826ZM15.7109 24.3826C15.9871 24.3826 16.2109 24.6065 16.2109 24.8826H14.2109C14.2109 25.7111 14.8825 26.3826 15.7109 26.3826V24.3826ZM16.2109 24.8826V21.9079H14.2109V24.8826H16.2109ZM16.2109 21.9079C16.2109 22.1495 16.0381 22.3566 15.8004 22.3998L15.4426 20.4321C14.7294 20.5617 14.2109 21.1829 14.2109 21.9079H16.2109ZM15.8004 22.3998L16.507 22.2713L16.1492 20.3036L15.4426 20.4321L15.8004 22.3998ZM15.3281 11.685V21.2875H17.3281V11.685H15.3281ZM15.4426 12.5404L16.1492 12.6689L16.507 10.7011L15.8004 10.5727L15.4426 12.5404ZM14.2109 11.0646C14.2109 11.7895 14.7294 12.4107 15.4426 12.5404L15.8004 10.5727C16.0381 10.6159 16.2109 10.823 16.2109 11.0646H14.2109ZM14.2109 8.08984V11.0646H16.2109V8.08984H14.2109Z" fill="#3E3AFE" mask="url(#path-15-outside-1_894_7276)"/>
<path d="M48.4225 26H44.6785V8.372C43.8465 8.77067 43.2051 9.34267 42.7545 10.088C42.3038 10.816 42.0785 11.7 42.0785 12.74C42.0785 13.2773 42.1131 13.7193 42.1825 14.066C42.2691 14.4127 42.3558 14.6987 42.4425 14.924C42.5465 15.132 42.6505 15.3053 42.7545 15.444C42.8585 15.5653 42.9365 15.678 42.9885 15.782C41.9485 15.782 41.1251 15.548 40.5185 15.08C39.9118 14.5947 39.6085 13.78 39.6085 12.636C39.6085 11.804 39.8251 11.024 40.2585 10.296C40.6918 9.55067 41.2638 8.90067 41.9745 8.346C42.7025 7.774 43.5258 7.32333 44.4445 6.994C45.3805 6.66467 46.3425 6.5 47.3305 6.5C47.5211 6.5 47.7031 6.50867 47.8765 6.526C48.0671 6.526 48.2491 6.53467 48.4225 6.552V26ZM55.3728 13V25.064C55.7368 24.9253 56.0575 24.7607 56.3348 24.57C56.6121 24.3793 56.8548 24.1453 57.0628 23.868C57.2708 23.5733 57.4355 23.2267 57.5568 22.828C57.6955 22.412 57.7995 21.918 57.8688 21.346H58.9608C58.8741 22.2127 58.7095 22.932 58.4668 23.504C58.2415 24.0587 57.9555 24.518 57.6088 24.882C57.2795 25.246 56.9155 25.532 56.5168 25.74C56.1355 25.948 55.7541 26.1127 55.3728 26.234V28.08C55.3728 28.9987 55.2601 29.744 55.0348 30.316C54.8095 30.9053 54.5148 31.356 54.1508 31.668C53.8041 31.9973 53.4141 32.214 52.9808 32.318C52.5648 32.4393 52.1575 32.5 51.7588 32.5C51.2561 32.5 50.7881 32.4307 50.3548 32.292C49.9041 32.1533 49.5228 31.954 49.2108 31.694C48.8815 31.4513 48.6215 31.148 48.4308 30.784C48.2401 30.42 48.1448 30.0127 48.1448 29.562C48.1448 29.094 48.2488 28.6693 48.4568 28.288C48.6648 27.924 48.9335 27.6033 49.2628 27.326C49.5921 27.0487 49.9648 26.806 50.3808 26.598C50.7968 26.4073 51.2128 26.2427 51.6288 26.104V13H55.3728ZM51.3948 9.542C51.3948 8.97 51.5941 8.48467 51.9928 8.086C52.3915 7.67 52.8768 7.462 53.4488 7.462C54.0208 7.462 54.5061 7.67 54.9048 8.086C55.3208 8.48467 55.5288 8.97 55.5288 9.542C55.5288 10.114 55.3208 10.5993 54.9048 10.998C54.5061 11.3967 54.0208 11.596 53.4488 11.596C52.8768 11.596 52.3915 11.3967 51.9928 10.998C51.5941 10.5993 51.3948 10.114 51.3948 9.542ZM49.5228 29.328C49.5228 29.6747 49.6441 29.952 49.8868 30.16C50.1121 30.368 50.3461 30.472 50.5888 30.472C50.9008 30.472 51.1521 30.2813 51.3428 29.9C51.5335 29.5187 51.6288 28.938 51.6288 28.158V27.404C51.0395 27.6467 50.5455 27.924 50.1468 28.236C49.7308 28.548 49.5228 28.912 49.5228 29.328ZM69.3669 13V21.84C69.3669 22.568 69.4622 23.0533 69.6529 23.296C69.8609 23.5213 70.2162 23.634 70.7189 23.634C71.2216 23.634 71.6376 23.4173 71.9669 22.984C72.3136 22.5507 72.5129 22.0047 72.5649 21.346H73.6569C73.5182 22.4033 73.2756 23.2527 72.9289 23.894C72.5822 24.518 72.1922 25.0033 71.7589 25.35C71.3256 25.6793 70.8836 25.896 70.4329 26C69.9822 26.104 69.5836 26.156 69.2369 26.156C68.3182 26.156 67.6162 25.948 67.1309 25.532C66.6629 25.0987 66.3336 24.5093 66.1429 23.764C66.0042 24.0587 65.8396 24.3533 65.6489 24.648C65.4582 24.9253 65.2242 25.1767 64.9469 25.402C64.6869 25.6273 64.3749 25.8093 64.0109 25.948C63.6642 26.0867 63.2569 26.156 62.7889 26.156C62.2342 26.156 61.6882 26.052 61.1509 25.844C60.6136 25.636 60.1196 25.298 59.6689 24.83C59.2356 24.362 58.8802 23.7467 58.6029 22.984C58.3429 22.204 58.2129 21.2507 58.2129 20.124C58.2129 19.3267 58.2996 18.5033 58.4729 17.654C58.6636 16.8047 58.9496 16.0247 59.3309 15.314C59.7296 14.6033 60.2409 14.0227 60.8649 13.572C61.5062 13.104 62.2776 12.87 63.1789 12.87C63.3869 12.87 63.6122 12.8873 63.8549 12.922C64.0976 12.9393 64.3316 13 64.5569 13.104C64.7822 13.1907 64.9902 13.3293 65.1809 13.52C65.3716 13.6933 65.5189 13.936 65.6229 14.248V13H69.3669ZM65.6229 15.496C65.6056 15.4267 65.5709 15.34 65.5189 15.236C65.4669 15.1147 65.3889 15.002 65.2849 14.898C65.1809 14.7767 65.0509 14.6813 64.8949 14.612C64.7389 14.5253 64.5569 14.482 64.3489 14.482C63.9329 14.482 63.5689 14.664 63.2569 15.028C62.9622 15.3747 62.7196 15.8167 62.5289 16.354C62.3556 16.874 62.2256 17.4547 62.1389 18.096C62.0522 18.72 62.0089 19.318 62.0089 19.89C62.0089 20.8087 62.0782 21.528 62.2169 22.048C62.3556 22.5507 62.5202 22.9233 62.7109 23.166C62.9189 23.3913 63.1356 23.53 63.3609 23.582C63.5862 23.6167 63.7769 23.634 63.9329 23.634C64.1236 23.634 64.3142 23.5907 64.5049 23.504C64.7129 23.4 64.8949 23.2527 65.0509 23.062C65.2242 22.8713 65.3629 22.6373 65.4669 22.36C65.5709 22.0653 65.6229 21.7273 65.6229 21.346V15.496ZM76.8644 13V14.612C77.2458 14.1613 77.6704 13.7627 78.1384 13.416C78.6064 13.052 79.1178 12.87 79.6724 12.87C80.0018 12.87 80.2964 12.9393 80.5564 13.078C80.8338 13.2167 81.0678 13.3987 81.2584 13.624C81.4664 13.8493 81.6224 14.1007 81.7264 14.378C81.8478 14.638 81.9084 14.9067 81.9084 15.184C81.9084 15.5653 81.7871 15.9207 81.5444 16.25C81.3191 16.562 80.9378 16.718 80.4004 16.718C80.0018 16.718 79.7244 16.6313 79.5684 16.458C79.4124 16.2847 79.2911 16.1027 79.2044 15.912C79.1178 15.704 79.0224 15.5133 78.9184 15.34C78.8318 15.1667 78.6671 15.08 78.4244 15.08C78.1644 15.08 77.9044 15.184 77.6444 15.392C77.4018 15.5827 77.1418 15.8253 76.8644 16.12V26H73.1204V13H76.8644ZM89.6038 23.972C90.1238 23.972 90.5832 23.9027 90.9818 23.764C91.3805 23.6253 91.7358 23.4433 92.0478 23.218C92.3598 22.9753 92.6458 22.698 92.9058 22.386C93.1658 22.0567 93.4172 21.71 93.6598 21.346H94.5438C94.3012 21.9527 94.0065 22.542 93.6598 23.114C93.3305 23.686 92.9145 24.1973 92.4118 24.648C91.9265 25.0987 91.3545 25.4627 90.6958 25.74C90.0372 26.0173 89.2658 26.156 88.3818 26.156C87.6365 26.156 86.9518 26.0433 86.3278 25.818C85.7038 25.5927 85.1578 25.246 84.6898 24.778C84.2392 24.2927 83.8838 23.6773 83.6238 22.932C83.3812 22.1693 83.2598 21.2593 83.2598 20.202C83.2598 19.4567 83.3378 18.6593 83.4938 17.81C83.6672 16.9433 83.9618 16.146 84.3778 15.418C84.7938 14.69 85.3572 14.0833 86.0678 13.598C86.7785 13.1127 87.6798 12.87 88.7718 12.87C89.6038 12.87 90.2452 13 90.6958 13.26C91.1465 13.52 91.4758 13.8233 91.6838 14.17C91.9092 14.5167 92.0392 14.8547 92.0738 15.184C92.1258 15.5133 92.1518 15.7473 92.1518 15.886C92.1518 16.666 92.0045 17.3507 91.7098 17.94C91.4325 18.5293 91.0512 19.032 90.5658 19.448C90.0978 19.8467 89.5518 20.1587 88.9278 20.384C88.3212 20.592 87.6972 20.7133 87.0558 20.748C87.0732 21.9093 87.2638 22.7413 87.6278 23.244C88.0092 23.7293 88.6678 23.972 89.6038 23.972ZM90.1498 15.912C90.1498 15.3053 90.0458 14.8807 89.8378 14.638C89.6298 14.378 89.4045 14.248 89.1618 14.248C88.8672 14.248 88.5985 14.3953 88.3558 14.69C88.1132 14.9673 87.8965 15.3487 87.7058 15.834C87.5325 16.302 87.3852 16.8567 87.2638 17.498C87.1598 18.1393 87.0905 18.8067 87.0558 19.5C87.4892 19.4653 87.8965 19.3527 88.2778 19.162C88.6592 18.954 88.9885 18.694 89.2658 18.382C89.5432 18.0527 89.7598 17.68 89.9158 17.264C90.0718 16.848 90.1498 16.3973 90.1498 15.912ZM100.362 23.972C100.882 23.972 101.342 23.9027 101.74 23.764C102.139 23.6253 102.494 23.4433 102.806 23.218C103.118 22.9753 103.404 22.698 103.664 22.386C103.924 22.0567 104.176 21.71 104.418 21.346H105.302C105.06 21.9527 104.765 22.542 104.418 23.114C104.089 23.686 103.673 24.1973 103.17 24.648C102.685 25.0987 102.113 25.4627 101.454 25.74C100.796 26.0173 100.024 26.156 99.1403 26.156C98.395 26.156 97.7103 26.0433 97.0863 25.818C96.4623 25.5927 95.9163 25.246 95.4483 24.778C94.9977 24.2927 94.6423 23.6773 94.3823 22.932C94.1397 22.1693 94.0183 21.2593 94.0183 20.202C94.0183 19.4567 94.0963 18.6593 94.2523 17.81C94.4257 16.9433 94.7203 16.146 95.1363 15.418C95.5523 14.69 96.1157 14.0833 96.8263 13.598C97.537 13.1127 98.4383 12.87 99.5303 12.87C100.362 12.87 101.004 13 101.454 13.26C101.905 13.52 102.234 13.8233 102.442 14.17C102.668 14.5167 102.798 14.8547 102.832 15.184C102.884 15.5133 102.91 15.7473 102.91 15.886C102.91 16.666 102.763 17.3507 102.468 17.94C102.191 18.5293 101.81 19.032 101.324 19.448C100.856 19.8467 100.31 20.1587 99.6863 20.384C99.0797 20.592 98.4557 20.7133 97.8143 20.748C97.8317 21.9093 98.0223 22.7413 98.3863 23.244C98.7677 23.7293 99.4263 23.972 100.362 23.972ZM100.908 15.912C100.908 15.3053 100.804 14.8807 100.596 14.638C100.388 14.378 100.163 14.248 99.9203 14.248C99.6257 14.248 99.357 14.3953 99.1143 14.69C98.8717 14.9673 98.655 15.3487 98.4643 15.834C98.291 16.302 98.1437 16.8567 98.0223 17.498C97.9183 18.1393 97.849 18.8067 97.8143 19.5C98.2477 19.4653 98.655 19.3527 99.0363 19.162C99.4177 18.954 99.747 18.694 100.024 18.382C100.302 18.0527 100.518 17.68 100.674 17.264C100.83 16.848 100.908 16.3973 100.908 15.912ZM115.905 7.8V21.84C115.905 22.568 116 23.0533 116.191 23.296C116.399 23.5213 116.754 23.634 117.257 23.634C117.465 23.634 117.638 23.5993 117.777 23.53C117.621 24.5007 117.396 25.1853 117.101 25.584C116.824 25.9653 116.321 26.156 115.593 26.156C114.726 26.156 114.068 25.9393 113.617 25.506C113.166 25.0727 112.854 24.492 112.681 23.764C112.542 24.0587 112.378 24.3533 112.187 24.648C111.996 24.9253 111.762 25.1767 111.485 25.402C111.225 25.6273 110.913 25.8093 110.549 25.948C110.202 26.0867 109.795 26.156 109.327 26.156C108.772 26.156 108.226 26.052 107.689 25.844C107.152 25.636 106.658 25.298 106.207 24.83C105.774 24.362 105.418 23.7467 105.141 22.984C104.881 22.204 104.751 21.2507 104.751 20.124C104.751 19.3267 104.838 18.5033 105.011 17.654C105.202 16.8047 105.488 16.0247 105.869 15.314C106.268 14.6033 106.779 14.0227 107.403 13.572C108.044 13.104 108.816 12.87 109.717 12.87C109.925 12.87 110.15 12.8873 110.393 12.922C110.636 12.9393 110.87 13 111.095 13.104C111.32 13.1907 111.528 13.3293 111.719 13.52C111.91 13.6933 112.057 13.936 112.161 14.248V8.32L115.905 7.8ZM110.887 14.482C110.471 14.482 110.107 14.664 109.795 15.028C109.5 15.3747 109.258 15.8167 109.067 16.354C108.894 16.874 108.764 17.4547 108.677 18.096C108.59 18.72 108.547 19.318 108.547 19.89C108.547 20.8087 108.616 21.528 108.755 22.048C108.894 22.5507 109.058 22.9233 109.249 23.166C109.457 23.3913 109.674 23.53 109.899 23.582C110.124 23.6167 110.315 23.634 110.471 23.634C110.662 23.634 110.852 23.5907 111.043 23.504C111.251 23.4 111.433 23.2527 111.589 23.062C111.762 22.8713 111.901 22.6373 112.005 22.36C112.109 22.0827 112.161 21.7533 112.161 21.372V15.47C112.126 15.4007 112.083 15.314 112.031 15.21C111.979 15.0887 111.901 14.976 111.797 14.872C111.693 14.768 111.563 14.6813 111.407 14.612C111.268 14.5253 111.095 14.482 110.887 14.482Z" fill="#1A1926"/>
</svg>
