<svg width="324" height="99" viewBox="0 0 324 99" fill="none" xmlns="http://www.w3.org/2000/svg">
<circle cx="40" cy="49" r="40" fill="#3E3AFE"/>
<mask id="mask0_894_7303" style="mask-type:alpha" maskUnits="userSpaceOnUse" x="26" y="29" width="18" height="47">
<path fill-rule="evenodd" clip-rule="evenodd" d="M26.6797 29.5029C26.6797 29.2268 26.9035 29.0029 27.1797 29.0029H29.7031H40.3092H42.8464C43.1225 29.0029 43.3464 29.2268 43.3464 29.5029V38.7912C43.3464 39.0341 43.1718 39.2418 42.9325 39.2837L40.3092 39.7428V64.929L42.9325 65.388C43.1718 65.4299 43.3464 65.6377 43.3464 65.8806V75.1688C43.3464 75.4449 43.1225 75.6688 42.8464 75.6688H40.3092V75.6696H29.7031V75.6688H27.1797C26.9035 75.6688 26.6797 75.4449 26.6797 75.1688V65.8806C26.6797 65.6377 26.8542 65.4299 27.0935 65.388L29.7031 64.9314V39.7404L27.0935 39.2837C26.8542 39.2418 26.6797 39.0341 26.6797 38.7912V29.5029Z" fill="white"/>
</mask>
<g mask="url(#mask0_894_7303)">
<rect width="1.75547" height="35.5225" transform="matrix(0.603679 0.797227 -0.818656 0.574284 48.5625 11.6826)" fill="white"/>
<rect width="1.75547" height="35.5225" transform="matrix(0.603679 0.797227 -0.818656 0.574284 48.5625 32.4639)" fill="white"/>
<rect width="1.75547" height="35.5225" transform="matrix(0.603679 0.797227 -0.818656 0.574284 48.5625 53.2441)" fill="white"/>
<rect width="1.75547" height="35.5225" transform="matrix(0.603679 0.797227 -0.818656 0.574284 48.5625 22.0732)" fill="white"/>
<rect width="1.75547" height="35.5225" transform="matrix(0.603679 0.797227 -0.818656 0.574284 48.5625 42.8535)" fill="white"/>
<rect width="1.75547" height="35.5225" transform="matrix(0.603679 0.797227 -0.818656 0.574284 48.5625 63.6348)" fill="white"/>
<rect width="1.75547" height="35.5225" transform="matrix(0.603679 0.797227 -0.818656 0.574284 48.5625 16.8789)" fill="white"/>
<rect width="1.75547" height="35.5225" transform="matrix(0.603679 0.797227 -0.818656 0.574284 48.5625 37.6602)" fill="white"/>
<rect width="1.75547" height="35.5225" transform="matrix(0.603679 0.797227 -0.818656 0.574284 48.5625 58.4404)" fill="white"/>
<rect width="1.75547" height="35.5225" transform="matrix(0.603679 0.797227 -0.818656 0.574284 48.5625 27.2695)" fill="white"/>
<rect width="1.75547" height="35.5225" transform="matrix(0.603679 0.797227 -0.818656 0.574284 48.5625 48.0498)" fill="white"/>
<rect width="1.75547" height="35.5225" transform="matrix(0.603679 0.797227 -0.818656 0.574284 48.5625 68.8311)" fill="white"/>
</g>
<mask id="path-15-outside-1_894_7303" maskUnits="userSpaceOnUse" x="35.4062" y="19.335" width="22" height="51" fill="black">
<rect fill="white" x="35.4062" y="19.335" width="22" height="51"/>
<path fill-rule="evenodd" clip-rule="evenodd" d="M38.4065 22.835C38.4065 22.5588 38.6303 22.335 38.9065 22.335H41.2268H51.0514H53.3451C53.6212 22.335 53.8451 22.5588 53.8451 22.835V31.7422C53.8451 31.9839 53.6723 32.1909 53.4345 32.2342L51.0514 32.6675V56.9163L53.4343 57.3496C53.672 57.3928 53.8448 57.5999 53.8448 57.8415V66.7488C53.8448 67.0249 53.621 67.2488 53.3448 67.2488H38.9062C38.6301 67.2488 38.4062 67.0249 38.4062 66.7488V57.8415C38.4062 57.5999 38.5791 57.3928 38.8168 57.3496L41.2268 56.9114V32.6723L38.817 32.2342C38.5793 32.1909 38.4065 31.9839 38.4065 31.7422V22.835Z"/>
</mask>
<path fill-rule="evenodd" clip-rule="evenodd" d="M38.4065 22.835C38.4065 22.5588 38.6303 22.335 38.9065 22.335H41.2268H51.0514H53.3451C53.6212 22.335 53.8451 22.5588 53.8451 22.835V31.7422C53.8451 31.9839 53.6723 32.1909 53.4345 32.2342L51.0514 32.6675V56.9163L53.4343 57.3496C53.672 57.3928 53.8448 57.5999 53.8448 57.8415V66.7488C53.8448 67.0249 53.621 67.2488 53.3448 67.2488H38.9062C38.6301 67.2488 38.4062 67.0249 38.4062 66.7488V57.8415C38.4062 57.5999 38.5791 57.3928 38.8168 57.3496L41.2268 56.9114V32.6723L38.817 32.2342C38.5793 32.1909 38.4065 31.9839 38.4065 31.7422V22.835Z" fill="white"/>
<path d="M53.4345 32.2342L52.8979 29.2826L52.8979 29.2826L53.4345 32.2342ZM51.0514 32.6675L50.5147 29.7159L48.0514 30.1637V32.6675H51.0514ZM51.0514 56.9163H48.0514V59.42L50.5147 59.8679L51.0514 56.9163ZM53.4343 57.3496L53.971 54.398L53.9709 54.3979L53.4343 57.3496ZM38.8168 57.3496L38.2802 54.3979L38.2801 54.398L38.8168 57.3496ZM41.2268 56.9114L41.7634 59.863L44.2268 59.4151V56.9114H41.2268ZM41.2268 32.6723H44.2268V30.1686L41.7634 29.7207L41.2268 32.6723ZM38.817 32.2342L39.3537 29.2826L39.3537 29.2826L38.817 32.2342ZM38.9065 19.335C36.9735 19.335 35.4065 20.902 35.4065 22.835H41.4065C41.4065 24.2157 40.2872 25.335 38.9065 25.335V19.335ZM41.2268 19.335H38.9065V25.335H41.2268V19.335ZM51.0514 19.335H41.2268V25.335H51.0514V19.335ZM53.3451 19.335H51.0514V25.335H53.3451V19.335ZM56.8451 22.835C56.8451 20.902 55.2781 19.335 53.3451 19.335V25.335C51.9644 25.335 50.8451 24.2157 50.8451 22.835H56.8451ZM56.8451 31.7422V22.835H50.8451V31.7422H56.8451ZM53.9712 35.1858C55.6354 34.8832 56.8451 33.4337 56.8451 31.7422H50.8451C50.8451 30.534 51.7091 29.4987 52.8979 29.2826L53.9712 35.1858ZM51.588 35.6191L53.9712 35.1858L52.8979 29.2826L50.5147 29.7159L51.588 35.6191ZM54.0514 56.9163V32.6675H48.0514V56.9163H54.0514ZM50.5147 59.8679L52.8976 60.3012L53.9709 54.3979L51.588 53.9647L50.5147 59.8679ZM52.8976 60.3012C51.7089 60.085 50.8448 59.0497 50.8448 57.8415H56.8448C56.8448 56.15 55.6352 54.7005 53.971 54.398L52.8976 60.3012ZM50.8448 57.8415V66.7488H56.8448V57.8415H50.8448ZM50.8448 66.7488C50.8448 65.3681 51.9641 64.2488 53.3448 64.2488V70.2488C55.2778 70.2488 56.8448 68.6818 56.8448 66.7488H50.8448ZM53.3448 64.2488H38.9062V70.2488H53.3448V64.2488ZM38.9062 64.2488C40.287 64.2488 41.4062 65.3681 41.4062 66.7488H35.4062C35.4062 68.6818 36.9733 70.2488 38.9062 70.2488V64.2488ZM41.4062 66.7488V57.8415H35.4062V66.7488H41.4062ZM41.4062 57.8415C41.4062 59.0497 40.5422 60.085 39.3535 60.3012L38.2801 54.398C36.6159 54.7005 35.4062 56.15 35.4062 57.8415H41.4062ZM39.3535 60.3012L41.7634 59.863L40.6901 53.9598L38.2802 54.3979L39.3535 60.3012ZM38.2268 32.6723V56.9114H44.2268V32.6723H38.2268ZM38.2804 35.1858L40.6901 35.6239L41.7634 29.7207L39.3537 29.2826L38.2804 35.1858ZM35.4065 31.7422C35.4065 33.4337 36.6162 34.8832 38.2804 35.1858L39.3537 29.2826C40.5424 29.4987 41.4065 30.534 41.4065 31.7422H35.4065ZM35.4065 22.835V31.7422H41.4065V22.835H35.4065Z" fill="#3E3AFE" mask="url(#path-15-outside-1_894_7303)"/>
<path d="M119.576 75H108.776V24.15C106.376 25.3 104.526 26.95 103.226 29.1C101.926 31.2 101.276 33.75 101.276 36.75C101.276 38.3 101.376 39.575 101.576 40.575C101.826 41.575 102.076 42.4 102.326 43.05C102.626 43.65 102.926 44.15 103.226 44.55C103.526 44.9 103.751 45.225 103.901 45.525C100.901 45.525 98.5261 44.85 96.7761 43.5C95.0261 42.1 94.1511 39.75 94.1511 36.45C94.1511 34.05 94.7761 31.8 96.0261 29.7C97.2761 27.55 98.9261 25.675 100.976 24.075C103.076 22.425 105.451 21.125 108.101 20.175C110.801 19.225 113.576 18.75 116.426 18.75C116.976 18.75 117.501 18.775 118.001 18.825C118.551 18.825 119.076 18.85 119.576 18.9V75ZM139.625 37.5V72.3C140.675 71.9 141.6 71.425 142.4 70.875C143.2 70.325 143.9 69.65 144.5 68.85C145.1 68 145.575 67 145.925 65.85C146.325 64.65 146.625 63.225 146.825 61.575H149.975C149.725 64.075 149.25 66.15 148.55 67.8C147.9 69.4 147.075 70.725 146.075 71.775C145.125 72.825 144.075 73.65 142.925 74.25C141.825 74.85 140.725 75.325 139.625 75.675V81C139.625 83.65 139.3 85.8 138.65 87.45C138 89.15 137.15 90.45 136.1 91.35C135.1 92.3 133.975 92.925 132.725 93.225C131.525 93.575 130.35 93.75 129.2 93.75C127.75 93.75 126.4 93.55 125.15 93.15C123.85 92.75 122.75 92.175 121.85 91.425C120.9 90.725 120.15 89.85 119.6 88.8C119.05 87.75 118.775 86.575 118.775 85.275C118.775 83.925 119.075 82.7 119.675 81.6C120.275 80.55 121.05 79.625 122 78.825C122.95 78.025 124.025 77.325 125.225 76.725C126.425 76.175 127.625 75.7 128.825 75.3V37.5H139.625ZM128.15 27.525C128.15 25.875 128.725 24.475 129.875 23.325C131.025 22.125 132.425 21.525 134.075 21.525C135.725 21.525 137.125 22.125 138.275 23.325C139.475 24.475 140.075 25.875 140.075 27.525C140.075 29.175 139.475 30.575 138.275 31.725C137.125 32.875 135.725 33.45 134.075 33.45C132.425 33.45 131.025 32.875 129.875 31.725C128.725 30.575 128.15 29.175 128.15 27.525ZM122.75 84.6C122.75 85.6 123.1 86.4 123.8 87C124.45 87.6 125.125 87.9 125.825 87.9C126.725 87.9 127.45 87.35 128 86.25C128.55 85.15 128.825 83.475 128.825 81.225V79.05C127.125 79.75 125.7 80.55 124.55 81.45C123.35 82.35 122.75 83.4 122.75 84.6ZM179.993 37.5V63C179.993 65.1 180.268 66.5 180.818 67.2C181.418 67.85 182.443 68.175 183.893 68.175C185.343 68.175 186.543 67.55 187.493 66.3C188.493 65.05 189.068 63.475 189.218 61.575H192.368C191.968 64.625 191.268 67.075 190.268 68.925C189.268 70.725 188.143 72.125 186.893 73.125C185.643 74.075 184.368 74.7 183.068 75C181.768 75.3 180.618 75.45 179.618 75.45C176.968 75.45 174.943 74.85 173.543 73.65C172.193 72.4 171.243 70.7 170.693 68.55C170.293 69.4 169.818 70.25 169.268 71.1C168.718 71.9 168.043 72.625 167.243 73.275C166.493 73.925 165.593 74.45 164.543 74.85C163.543 75.25 162.368 75.45 161.018 75.45C159.418 75.45 157.843 75.15 156.293 74.55C154.743 73.95 153.318 72.975 152.018 71.625C150.768 70.275 149.743 68.5 148.943 66.3C148.193 64.05 147.818 61.3 147.818 58.05C147.818 55.75 148.068 53.375 148.568 50.925C149.118 48.475 149.943 46.225 151.043 44.175C152.193 42.125 153.668 40.45 155.468 39.15C157.318 37.8 159.543 37.125 162.143 37.125C162.743 37.125 163.393 37.175 164.093 37.275C164.793 37.325 165.468 37.5 166.118 37.8C166.768 38.05 167.368 38.45 167.918 39C168.468 39.5 168.893 40.2 169.193 41.1V37.5H179.993ZM169.193 44.7C169.143 44.5 169.043 44.25 168.893 43.95C168.743 43.6 168.518 43.275 168.218 42.975C167.918 42.625 167.543 42.35 167.093 42.15C166.643 41.9 166.118 41.775 165.518 41.775C164.318 41.775 163.268 42.3 162.368 43.35C161.518 44.35 160.818 45.625 160.268 47.175C159.768 48.675 159.393 50.35 159.143 52.2C158.893 54 158.768 55.725 158.768 57.375C158.768 60.025 158.968 62.1 159.368 63.6C159.768 65.05 160.243 66.125 160.793 66.825C161.393 67.475 162.018 67.875 162.668 68.025C163.318 68.125 163.868 68.175 164.318 68.175C164.868 68.175 165.418 68.05 165.968 67.8C166.568 67.5 167.093 67.075 167.543 66.525C168.043 65.975 168.443 65.3 168.743 64.5C169.043 63.65 169.193 62.675 169.193 61.575V44.7ZM201.62 37.5V42.15C202.72 40.85 203.945 39.7 205.295 38.7C206.645 37.65 208.12 37.125 209.72 37.125C210.67 37.125 211.52 37.325 212.27 37.725C213.07 38.125 213.745 38.65 214.295 39.3C214.895 39.95 215.345 40.675 215.645 41.475C215.995 42.225 216.17 43 216.17 43.8C216.17 44.9 215.82 45.925 215.12 46.875C214.47 47.775 213.37 48.225 211.82 48.225C210.67 48.225 209.87 47.975 209.42 47.475C208.97 46.975 208.62 46.45 208.37 45.9C208.12 45.3 207.845 44.75 207.545 44.25C207.295 43.75 206.82 43.5 206.12 43.5C205.37 43.5 204.62 43.8 203.87 44.4C203.17 44.95 202.42 45.65 201.62 46.5V75H190.82V37.5H201.62ZM238.369 69.15C239.869 69.15 241.194 68.95 242.344 68.55C243.494 68.15 244.519 67.625 245.419 66.975C246.319 66.275 247.144 65.475 247.894 64.575C248.644 63.625 249.369 62.625 250.069 61.575H252.619C251.919 63.325 251.069 65.025 250.069 66.675C249.119 68.325 247.919 69.8 246.469 71.1C245.069 72.4 243.419 73.45 241.518 74.25C239.619 75.05 237.394 75.45 234.844 75.45C232.694 75.45 230.718 75.125 228.919 74.475C227.119 73.825 225.544 72.825 224.193 71.475C222.893 70.075 221.868 68.3 221.118 66.15C220.418 63.95 220.068 61.325 220.068 58.275C220.068 56.125 220.293 53.825 220.743 51.375C221.243 48.875 222.093 46.575 223.293 44.475C224.494 42.375 226.119 40.625 228.169 39.225C230.219 37.825 232.819 37.125 235.969 37.125C238.369 37.125 240.219 37.5 241.518 38.25C242.819 39 243.769 39.875 244.369 40.875C245.019 41.875 245.394 42.85 245.494 43.8C245.644 44.75 245.719 45.425 245.719 45.825C245.719 48.075 245.294 50.05 244.444 51.75C243.644 53.45 242.544 54.9 241.144 56.1C239.794 57.25 238.219 58.15 236.419 58.8C234.669 59.4 232.869 59.75 231.018 59.85C231.068 63.2 231.619 65.6 232.669 67.05C233.769 68.45 235.669 69.15 238.369 69.15ZM239.944 45.9C239.944 44.15 239.644 42.925 239.044 42.225C238.444 41.475 237.794 41.1 237.094 41.1C236.244 41.1 235.469 41.525 234.769 42.375C234.069 43.175 233.444 44.275 232.894 45.675C232.394 47.025 231.968 48.625 231.618 50.475C231.319 52.325 231.119 54.25 231.018 56.25C232.269 56.15 233.444 55.825 234.544 55.275C235.644 54.675 236.594 53.925 237.394 53.025C238.194 52.075 238.819 51 239.268 49.8C239.718 48.6 239.944 47.3 239.944 45.9ZM269.403 69.15C270.903 69.15 272.228 68.95 273.378 68.55C274.528 68.15 275.553 67.625 276.453 66.975C277.353 66.275 278.178 65.475 278.928 64.575C279.678 63.625 280.403 62.625 281.103 61.575H283.653C282.953 63.325 282.103 65.025 281.103 66.675C280.153 68.325 278.953 69.8 277.503 71.1C276.103 72.4 274.453 73.45 272.553 74.25C270.653 75.05 268.428 75.45 265.878 75.45C263.728 75.45 261.753 75.125 259.953 74.475C258.153 73.825 256.578 72.825 255.228 71.475C253.928 70.075 252.903 68.3 252.153 66.15C251.453 63.95 251.103 61.325 251.103 58.275C251.103 56.125 251.328 53.825 251.778 51.375C252.278 48.875 253.128 46.575 254.328 44.475C255.528 42.375 257.153 40.625 259.203 39.225C261.253 37.825 263.853 37.125 267.003 37.125C269.403 37.125 271.253 37.5 272.553 38.25C273.853 39 274.803 39.875 275.403 40.875C276.053 41.875 276.428 42.85 276.528 43.8C276.678 44.75 276.753 45.425 276.753 45.825C276.753 48.075 276.328 50.05 275.478 51.75C274.678 53.45 273.578 54.9 272.178 56.1C270.828 57.25 269.253 58.15 267.453 58.8C265.703 59.4 263.903 59.75 262.053 59.85C262.103 63.2 262.653 65.6 263.703 67.05C264.803 68.45 266.703 69.15 269.403 69.15ZM270.978 45.9C270.978 44.15 270.678 42.925 270.078 42.225C269.478 41.475 268.828 41.1 268.128 41.1C267.278 41.1 266.503 41.525 265.803 42.375C265.103 43.175 264.478 44.275 263.928 45.675C263.428 47.025 263.003 48.625 262.653 50.475C262.353 52.325 262.153 54.25 262.053 56.25C263.303 56.15 264.478 55.825 265.578 55.275C266.678 54.675 267.628 53.925 268.428 53.025C269.228 52.075 269.853 51 270.303 49.8C270.753 48.6 270.978 47.3 270.978 45.9ZM314.237 22.5V63C314.237 65.1 314.512 66.5 315.062 67.2C315.662 67.85 316.687 68.175 318.137 68.175C318.737 68.175 319.237 68.075 319.637 67.875C319.187 70.675 318.537 72.65 317.687 73.8C316.887 74.9 315.437 75.45 313.337 75.45C310.837 75.45 308.937 74.825 307.637 73.575C306.337 72.325 305.437 70.65 304.937 68.55C304.537 69.4 304.062 70.25 303.512 71.1C302.962 71.9 302.287 72.625 301.487 73.275C300.737 73.925 299.837 74.45 298.787 74.85C297.787 75.25 296.612 75.45 295.262 75.45C293.662 75.45 292.087 75.15 290.537 74.55C288.987 73.95 287.562 72.975 286.262 71.625C285.012 70.275 283.987 68.5 283.187 66.3C282.437 64.05 282.062 61.3 282.062 58.05C282.062 55.75 282.312 53.375 282.812 50.925C283.362 48.475 284.187 46.225 285.287 44.175C286.437 42.125 287.912 40.45 289.712 39.15C291.562 37.8 293.787 37.125 296.387 37.125C296.987 37.125 297.637 37.175 298.337 37.275C299.037 37.325 299.712 37.5 300.362 37.8C301.012 38.05 301.612 38.45 302.162 39C302.712 39.5 303.137 40.2 303.437 41.1V24L314.237 22.5ZM299.762 41.775C298.562 41.775 297.512 42.3 296.612 43.35C295.762 44.35 295.062 45.625 294.512 47.175C294.012 48.675 293.637 50.35 293.387 52.2C293.137 54 293.012 55.725 293.012 57.375C293.012 60.025 293.212 62.1 293.612 63.6C294.012 65.05 294.487 66.125 295.037 66.825C295.637 67.475 296.262 67.875 296.912 68.025C297.562 68.125 298.112 68.175 298.562 68.175C299.112 68.175 299.662 68.05 300.212 67.8C300.812 67.5 301.337 67.075 301.787 66.525C302.287 65.975 302.687 65.3 302.987 64.5C303.287 63.7 303.437 62.75 303.437 61.65V44.625C303.337 44.425 303.212 44.175 303.062 43.875C302.912 43.525 302.687 43.2 302.387 42.9C302.087 42.6 301.712 42.35 301.262 42.15C300.862 41.9 300.362 41.775 299.762 41.775Z" fill="#1A1926"/>
</svg>
