<svg width="149" height="202" viewBox="0 0 149 202" fill="none" xmlns="http://www.w3.org/2000/svg">
<path d="M121.213 137.427C122.29 137.835 123.428 138.04 124.58 138.033C122.771 138.034 120.995 138.521 119.438 139.443C117.881 140.365 116.601 141.688 115.73 143.274C114.86 144.86 114.431 146.651 114.49 148.459C114.548 150.268 115.091 152.027 116.062 153.554C114.558 154.423 112.85 154.876 111.113 154.867H37.0465C34.3678 154.867 31.7988 153.803 29.9047 151.908C28.0106 150.014 26.9465 147.445 26.9465 144.767V117.497C30.8586 109.139 33.1437 100.113 33.6798 90.9C33.6798 80.598 30.2795 75.548 26.9465 73.0903V13.4667C26.9465 10.788 28.0106 8.21901 29.9047 6.32489C31.7988 4.43077 34.3678 3.36667 37.0465 3.36667H111.113C113.792 3.36667 116.361 4.43077 118.255 6.32489C120.149 8.21901 121.213 10.788 121.213 13.4667V98.2393C118.987 99.0473 117.115 100.612 115.925 102.66C114.735 104.708 114.303 107.11 114.704 109.444C115.105 111.778 116.314 113.898 118.119 115.431C119.924 116.965 122.211 117.815 124.58 117.833C122.211 117.852 119.924 118.702 118.119 120.236C116.314 121.769 115.105 123.888 114.704 126.223C114.303 128.557 114.735 130.958 115.925 133.006C117.115 135.055 118.987 136.619 121.213 137.427Z" fill="#F5F5F5"/>
<path d="M114.48 127.933C114.48 125.255 115.544 122.686 117.438 120.792C119.332 118.897 121.901 117.833 124.58 117.833C122.211 117.815 119.924 116.965 118.119 115.431C116.314 113.898 115.105 111.778 114.704 109.444C114.303 107.11 114.735 104.708 115.925 102.66C117.115 100.612 118.987 99.0473 121.213 98.2393V13.4667C121.213 10.788 120.149 8.21901 118.255 6.32489C116.361 4.43077 113.792 3.36667 111.113 3.36667H101.013C103.692 3.36667 106.261 4.43077 108.155 6.32489C110.049 8.21901 111.113 10.788 111.113 13.4667V98.2393C108.887 99.0473 107.015 100.612 105.825 102.66C104.635 104.708 104.203 107.11 104.604 109.444C105.005 111.778 106.214 113.898 108.019 115.431C109.824 116.965 112.111 117.815 114.48 117.833C112.111 117.852 109.824 118.702 108.019 120.236C106.214 121.769 105.005 123.888 104.604 126.223C104.203 128.557 104.635 130.958 105.825 133.006C107.015 135.055 108.887 136.619 111.113 137.427C112.19 137.835 113.328 138.04 114.48 138.033C112.671 138.034 110.895 138.521 109.338 139.443C107.781 140.365 106.501 141.688 105.63 143.274C104.76 144.86 104.331 146.651 104.39 148.459C104.448 150.268 104.991 152.027 105.962 153.554C104.458 154.423 102.75 154.876 101.013 154.867H111.113C112.85 154.876 114.558 154.423 116.062 153.554C115.091 152.027 114.548 150.268 114.49 148.459C114.431 146.651 114.86 144.86 115.73 143.274C116.601 141.688 117.881 140.365 119.438 139.443C120.995 138.521 122.771 138.034 124.58 138.033C123.43 138.04 122.288 137.835 121.213 137.427C119.24 136.746 117.529 135.465 116.321 133.762C115.114 132.059 114.47 130.021 114.48 127.933Z" fill="#CFD8DC"/>
<path d="M107.746 168.333C97.4251 172.52 87.3533 177.297 77.5812 182.642C76.53 183.228 75.6526 184.082 75.0377 185.116C74.4228 186.151 74.0924 187.33 74.0798 188.533V191.9C74.0745 193.684 73.3634 195.394 72.1018 196.655C70.8402 197.917 69.1306 198.628 67.3465 198.633H26.9465C25.1623 198.628 23.4528 197.917 22.1912 196.655C20.9296 195.394 20.2185 193.684 20.2132 191.9C20.1458 185.806 15.8365 180.655 12.7728 175.673C6.91482 166.145 4.28882 165.707 3.48082 154.867C3.04315 149.312 4.22148 134.128 4.35615 128.506C4.49082 122.883 3.88482 116.79 4.08682 111.336C4.35615 103.559 8.53082 98.2393 10.6182 90.9C11.8975 86.217 12.83 81.4464 13.4125 76.6253C13.585 75.0025 14.3503 73.5005 15.5617 72.4071C16.7732 71.3137 18.3456 70.7058 19.9775 70.7H20.5835C22.8938 70.8517 25.1077 71.6833 26.9465 73.0903C30.2795 75.548 33.6798 80.598 33.6798 90.9C33.1437 100.113 30.8586 109.139 26.9465 117.497L26.9465 158.233C26.9465 160.912 28.0106 163.481 29.9047 165.375C31.7988 167.269 34.3678 168.333 37.0465 168.333H107.746Z" fill="white"/>
<path d="M97.6465 168.333C87.3251 172.52 77.2533 177.297 67.4812 182.642C66.43 183.228 65.5526 184.082 64.9377 185.116C64.3228 186.151 63.9924 187.33 63.9798 188.533V191.9C63.9745 193.684 63.2634 195.394 62.0018 196.655C60.7402 197.917 59.0306 198.628 57.2465 198.633H67.3465C69.1306 198.628 70.8402 197.917 72.1018 196.655C73.3634 195.394 74.0745 193.684 74.0798 191.9V188.533C74.0924 187.33 74.4228 186.151 75.0377 185.116C75.6526 184.082 76.53 183.228 77.5812 182.642C87.3533 177.297 97.4251 172.52 107.746 168.333H97.6465Z" fill="white"/>
<path d="M121.213 157.627V158.233C121.219 158.447 121.207 158.661 121.179 158.873C121.029 161.438 119.902 163.848 118.03 165.607C116.157 167.366 113.682 168.342 111.113 168.333H37.0465C34.3678 168.333 31.7988 167.269 29.9047 165.375C28.0106 163.481 26.9465 160.912 26.9465 158.233L26.9465 144.767C26.9465 147.445 28.0106 150.014 29.9047 151.908C31.7988 153.803 34.3678 154.867 37.0465 154.867H111.113C112.85 154.876 114.558 154.423 116.062 153.554C117.261 155.463 119.082 156.9 121.213 157.627Z" fill="#3F51B5"/>
<path d="M116.062 153.554C114.558 154.423 112.85 154.876 111.113 154.867L106.949 154.867C108.08 156.126 109.514 157.075 111.113 157.627V158.233C111.119 158.447 111.107 158.661 111.079 158.873C110.929 161.438 109.802 163.848 107.93 165.607C106.057 167.366 103.582 168.342 101.013 168.333H111.113C113.682 168.342 116.157 167.366 118.03 165.607C119.902 163.848 121.029 161.438 121.179 158.873C121.207 158.661 121.219 158.447 121.213 158.233V157.627C119.08 156.899 117.262 155.461 116.062 153.554Z" fill="#283593"/>
<path d="M121.28 85.7894L135.047 80.0997C136.298 79.6222 137.443 78.9006 138.413 77.9769C139.384 77.0532 140.161 75.9459 140.7 74.7193C141.238 73.4926 141.528 72.1712 141.551 70.8316C141.575 69.4921 141.332 68.1613 140.837 66.9164C140.342 65.6716 139.604 64.5376 138.666 63.5804C137.729 62.6232 136.611 61.8618 135.377 61.3405C134.143 60.8192 132.817 60.5484 131.477 60.5438C130.138 60.5392 128.81 60.8009 127.573 61.3137L121.213 63.8387L121.28 85.7894Z" fill="white"/>
<path d="M140.699 66.9697C140.21 65.7355 139.481 64.6099 138.556 63.6574C137.631 62.705 136.527 61.9443 135.307 61.419C134.088 60.8936 132.777 60.6139 131.449 60.5959C130.121 60.5778 128.803 60.8218 127.569 61.3137L126.078 61.9063C128.127 63.0115 129.725 64.7978 130.596 66.9563C131.584 69.4473 131.544 72.2285 130.484 74.69C129.425 77.1515 127.432 79.0921 124.943 80.0863L121.264 81.608V85.7759L135.03 80.0863C137.518 79.0953 139.512 77.1582 140.575 74.6996C141.638 72.2409 141.683 69.4613 140.699 66.9697Z" fill="white"/>
<path d="M144.78 107.733C144.78 110.412 143.716 112.981 141.822 114.875C139.927 116.769 137.359 117.833 134.68 117.833L124.58 117.833C122.211 117.815 119.924 116.965 118.119 115.431C116.314 113.898 115.105 111.778 114.704 109.444C114.303 107.11 114.735 104.708 115.925 102.66C117.115 100.612 118.987 99.0473 121.213 98.2393C122.29 97.832 123.428 97.6266 124.58 97.6333H134.68C137.359 97.6333 139.927 98.6974 141.822 100.592C143.716 102.486 144.78 105.055 144.78 107.733Z" fill="white"/>
<path d="M134.68 97.6333H124.58C127.259 97.6333 129.827 98.6974 131.722 100.592C133.616 102.486 134.68 105.055 134.68 107.733C134.68 110.412 133.616 112.981 131.722 114.875C129.827 116.769 127.259 117.833 124.58 117.833L134.68 117.833C137.359 117.833 139.927 116.769 141.822 114.875C143.716 112.981 144.78 110.412 144.78 107.733C144.78 105.055 143.716 102.486 141.822 100.592C139.927 98.6974 137.359 97.6333 134.68 97.6333Z" fill="white"/>
<path d="M141.413 127.933C141.413 130.612 140.349 133.181 138.455 135.075C136.561 136.969 133.992 138.033 131.313 138.033L124.58 138.033C123.43 138.04 122.288 137.835 121.213 137.427C118.987 136.619 117.115 135.055 115.925 133.006C114.735 130.958 114.303 128.557 114.704 126.223C115.105 123.888 116.314 121.769 118.119 120.236C119.924 118.702 122.211 117.852 124.58 117.833L131.313 117.833C133.992 117.833 136.561 118.897 138.455 120.792C140.349 122.686 141.413 125.255 141.413 127.933Z" fill="white"/>
<path d="M131.313 117.833L124.58 117.833C124.014 117.843 123.452 117.901 122.896 118.002C125.252 118.396 127.39 119.615 128.929 121.441C130.468 123.267 131.308 125.581 131.298 127.969C131.287 130.357 130.428 132.664 128.874 134.477C127.319 136.29 125.171 137.491 122.812 137.865C123.395 137.973 123.987 138.033 124.58 138.033L131.313 138.033C133.992 138.033 136.561 136.969 138.455 135.075C140.349 133.181 141.413 130.612 141.413 127.933C141.413 125.255 140.349 122.686 138.455 120.792C136.561 118.897 133.992 117.833 131.313 117.833Z" fill="white"/>
<path d="M138.147 148.133C138.147 150.812 137.083 153.381 135.189 155.275C133.295 157.169 130.726 158.233 128.048 158.233H124.58C123.43 158.24 122.288 158.035 121.213 157.627C119.244 156.939 117.539 155.656 116.332 153.954C115.126 152.253 114.478 150.219 114.48 148.133C114.48 145.455 115.544 142.886 117.438 140.992C119.332 139.097 121.901 138.033 124.58 138.033L128.048 138.033C130.726 138.033 133.295 139.097 135.189 140.992C137.083 142.886 138.147 145.455 138.147 148.133Z" fill="white"/>
<path d="M128.048 138.033L124.58 138.033C123.449 138.045 122.327 138.247 121.264 138.633C123.245 139.31 124.966 140.591 126.184 142.295C127.402 143.999 128.057 146.041 128.057 148.135C128.057 150.229 127.402 152.272 126.184 153.975C124.966 155.679 123.245 156.96 121.264 157.637C122.324 158.035 123.449 158.237 124.58 158.233H128.048C130.726 158.233 133.295 157.169 135.189 155.275C137.083 153.381 138.147 150.812 138.147 148.133C138.147 145.455 137.083 142.886 135.189 140.992C133.295 139.097 130.726 138.033 128.048 138.033Z" fill="white"/>
<path d="M104.38 3.36667L98.5757 14.9716C98.2963 15.5307 97.8667 16.001 97.3352 16.3298C96.8036 16.6587 96.1909 16.833 95.5659 16.8333H52.5938C51.9687 16.833 51.3561 16.6587 50.8245 16.3298C50.2929 16.001 49.8634 15.5307 49.584 14.9716L43.7798 3.36667H104.38Z" fill="#3F51B5"/>
<path d="M97.6465 63.9667H50.5131C48.6538 63.9667 47.1465 65.474 47.1465 67.3333V114.467C47.1465 116.326 48.6538 117.833 50.5131 117.833H97.6465C99.5058 117.833 101.013 116.326 101.013 114.467V67.3333C101.013 65.474 99.5058 63.9667 97.6465 63.9667Z" fill="#3E3AFE"/>
<path d="M97.6465 63.9667H87.5465C88.4394 63.9667 89.2957 64.3214 89.9271 64.9527C90.5584 65.5841 90.9132 66.4404 90.9132 67.3333V114.467C90.9132 115.36 90.5584 116.216 89.9271 116.847C89.2957 117.479 88.4394 117.833 87.5465 117.833H97.6465C98.5394 117.833 99.3957 117.479 100.027 116.847C100.658 116.216 101.013 115.36 101.013 114.467V67.3333C101.013 66.4404 100.658 65.5841 100.027 64.9527C99.3957 64.3214 98.5394 63.9667 97.6465 63.9667Z" fill="#2B28AE"/>
<path d="M111.113 0H37.0465C33.4749 0 30.0496 1.41881 27.5241 3.9443C24.9986 6.46979 23.5798 9.89508 23.5798 13.4667V67.8451C22.599 67.5618 21.5893 67.3901 20.57 67.3333H19.9741C17.5199 67.3439 15.1549 68.2547 13.3274 69.8929C11.4999 71.5311 10.3371 73.7829 10.0593 76.2213C9.50964 80.8681 8.60929 85.4666 7.36595 89.9775C6.61182 92.4352 5.69272 94.8323 4.61202 97.162C2.38315 101.543 1.05304 106.325 0.69995 111.228C0.605683 114.127 0.723517 117.2 0.834617 120.17C0.938983 122.927 1.05008 125.779 0.98275 128.408C0.935617 130.182 0.784117 132.923 0.61915 136.01C0.252183 142.743 -0.202317 151.113 0.0973167 155.116C0.163325 161.185 2.28674 167.052 6.12028 171.757C7.19088 173.282 8.44328 175.07 9.89768 177.433C10.4869 178.383 11.1131 179.342 11.7527 180.312C14.5134 183.679 16.2775 187.749 16.8465 192.065V192.294C16.9483 194.904 18.0572 197.373 19.9404 199.182C21.8236 200.992 24.3347 202.002 26.9465 202H67.3465C70.0252 202 72.5941 200.936 74.4883 199.042C76.3824 197.148 77.4465 194.579 77.4465 191.9V188.533C77.4734 187.288 78.1636 186.156 79.2544 185.561C88.7067 180.393 98.4441 175.766 108.42 171.7H111.113C114.104 171.7 117.009 170.702 119.369 168.865C121.729 167.028 123.409 164.456 124.142 161.556C124.29 161.556 124.432 161.6 124.58 161.6H128.047C130.622 161.614 133.147 160.885 135.318 159.501C137.489 158.117 139.216 156.136 140.291 153.796C141.366 151.456 141.744 148.856 141.379 146.307C141.014 143.758 139.923 141.368 138.235 139.424C139.914 138.434 141.356 137.088 142.457 135.479C143.558 133.871 144.292 132.04 144.606 130.116C144.921 128.192 144.808 126.223 144.277 124.348C143.745 122.472 142.808 120.737 141.531 119.264C144.073 117.768 146.052 115.477 147.161 112.744C148.271 110.011 148.45 106.989 147.67 104.144C146.891 101.299 145.196 98.7905 142.848 97.0052C140.5 95.2199 137.629 94.2575 134.68 94.2667H124.58V88.0686L136.286 83.2307C139.556 81.8754 142.162 79.2874 143.541 76.0262C144.919 72.765 144.958 69.0925 143.65 65.8024C142.342 62.5124 139.793 59.8691 136.552 58.4439C133.311 57.0188 129.639 56.9261 126.33 58.1861L124.58 58.8796V13.4667C124.58 9.89508 123.161 6.46979 120.636 3.9443C118.11 1.41881 114.685 0 111.113 0ZM98.9326 6.73333L95.5659 13.4667H52.5938L49.2271 6.73333H98.9326ZM30.3132 13.4667C30.3132 11.6809 31.0226 9.96823 32.2853 8.70548C33.548 7.44274 35.2607 6.73333 37.0465 6.73333H41.6992L46.5708 16.4798C47.1272 17.6005 47.9863 18.5429 49.0508 19.2004C50.1153 19.8579 51.3426 20.2042 52.5938 20.2H95.5659C96.817 20.2042 98.0444 19.8579 99.1089 19.2004C100.173 18.5429 101.032 17.6005 101.589 16.4798L106.46 6.73333H111.113C112.899 6.73333 114.612 7.44274 115.874 8.70548C117.137 9.96823 117.846 11.6809 117.846 13.4667V96.1385C115.989 97.1954 114.413 98.6835 113.252 100.477C112.09 102.271 111.377 104.318 111.173 106.446C110.969 108.573 111.28 110.718 112.079 112.7C112.879 114.682 114.143 116.443 115.766 117.833C114.309 119.084 113.139 120.634 112.336 122.379C111.533 124.123 111.116 126.02 111.113 127.94C111.11 129.86 111.521 131.758 112.319 133.505C113.117 135.251 114.282 136.805 115.736 138.06C113.837 139.661 112.437 141.772 111.699 144.143C110.962 146.515 110.919 149.048 111.574 151.443C111.416 151.443 111.271 151.5 111.113 151.5H37.0465C35.2607 151.5 33.548 150.791 32.2853 149.528C31.0226 148.265 30.3132 146.552 30.3132 144.767V118.284C34.2785 109.669 36.5572 100.373 37.0263 90.9H37.0465C37.0465 80.6283 33.8717 74.8376 30.3132 71.5686V13.4667ZM131.313 134.667H124.58C123.799 134.667 123.028 134.525 122.301 134.242C120.993 133.786 119.861 132.933 119.062 131.802C118.264 130.671 117.839 129.318 117.846 127.933C117.846 126.148 118.556 124.435 119.819 123.172C121.081 121.909 122.794 121.2 124.58 121.2H131.313C133.099 121.2 134.812 121.909 136.074 123.172C137.337 124.435 138.046 126.148 138.046 127.933C138.046 129.719 137.337 131.432 136.074 132.695C134.812 133.957 133.099 134.667 131.313 134.667ZM75.9281 179.706C74.358 180.587 73.0487 181.868 72.1329 183.418C71.217 184.968 70.7273 186.733 70.7132 188.533V191.9C70.7132 192.793 70.3585 193.649 69.7271 194.281C69.0957 194.912 68.2394 195.267 67.3465 195.267H26.9465C26.0536 195.267 25.1973 194.912 24.5659 194.281C23.9345 193.649 23.5798 192.793 23.5798 191.9V191.762C23.0105 186.224 20.864 180.966 17.3953 176.612C16.796 175.7 16.2001 174.797 15.6513 173.919C14.1094 171.417 12.7863 169.542 11.6551 167.912C8.52606 164.197 6.8155 159.492 6.82728 154.634C6.56468 151.062 7.00572 142.928 7.35922 136.394C7.52755 133.229 7.69588 130.418 7.72955 128.597C7.80362 125.755 7.68915 122.796 7.58142 119.934C7.46695 116.945 7.35922 114.127 7.45012 111.467C7.78048 107.413 8.91465 103.466 10.7865 99.8553C11.9884 97.2495 13.0085 94.5629 13.8434 91.8157C15.18 86.9576 16.1462 82.0053 16.7354 77.0024C16.8226 76.2016 17.2005 75.4606 17.7973 74.9195C18.3941 74.3785 19.1686 74.0751 19.9741 74.0667H20.5229C21.5329 74.097 30.3132 74.8208 30.3132 90.9C30.2927 91.0615 30.3065 91.2256 30.3536 91.3814C30.5791 95.2632 26.3843 116.036 22.0749 118.187C21.3933 118.52 20.8453 119.075 20.5211 119.761C20.1968 120.447 20.1155 121.223 20.2906 121.961C20.4657 122.7 20.8867 123.356 21.4844 123.824C22.0822 124.291 22.8211 124.541 23.5798 124.533V158.233C23.5798 161.805 24.9986 165.23 27.5241 167.756C30.0496 170.281 33.4749 171.7 37.0465 171.7H91.6269C86.6409 174.026 81.0589 176.794 75.9281 179.706ZM111.113 164.967H37.0465C35.2607 164.967 33.548 164.257 32.2853 162.995C31.0226 161.732 30.3132 160.019 30.3132 158.233V156.361C32.35 157.573 34.6764 158.22 37.0465 158.233L111.113 158.233C112.445 158.227 113.768 158.021 115.039 157.624C115.83 158.405 116.715 159.082 117.671 159.644C117.356 161.149 116.532 162.5 115.337 163.47C114.143 164.439 112.651 164.968 111.113 164.967ZM128.047 154.867H124.58C122.794 154.867 121.081 154.157 119.819 152.895C118.556 151.632 117.846 149.919 117.846 148.133C117.846 146.348 118.556 144.635 119.819 143.372C121.081 142.109 122.794 141.4 124.58 141.4H128.047C129.833 141.4 131.546 142.109 132.809 143.372C134.071 144.635 134.781 146.348 134.781 148.133C134.781 149.919 134.071 151.632 132.809 152.895C131.546 154.157 129.833 154.867 128.047 154.867ZM141.413 107.733C141.413 109.519 140.704 111.232 139.441 112.495C138.178 113.757 136.466 114.467 134.68 114.467H124.58C122.794 114.467 121.081 113.757 119.819 112.495C118.556 111.232 117.846 109.519 117.846 107.733C117.846 105.948 118.556 104.235 119.819 102.972C121.081 101.709 122.794 101 124.58 101H134.68C136.466 101 138.178 101.709 139.441 102.972C140.704 104.235 141.413 105.948 141.413 107.733ZM128.815 64.4447C129.643 64.0982 130.532 63.9204 131.429 63.9218C132.326 63.9231 133.214 64.1035 134.041 64.4525C134.868 64.8015 135.617 65.312 136.244 65.9541C136.871 66.5962 137.363 67.3569 137.692 68.1918C138.022 69.0267 138.181 69.9189 138.161 70.8161C138.141 71.7132 137.942 72.5974 137.575 73.4167C137.209 74.236 136.683 74.974 136.028 75.5874C135.373 76.2008 134.602 76.6773 133.761 76.9889L124.58 80.8V66.1247L128.815 64.4447Z" fill="#21202E"/>
<path d="M50.5132 121.2H97.6465C99.4323 121.2 101.145 120.491 102.408 119.228C103.67 117.965 104.38 116.252 104.38 114.467V67.3333C104.38 65.5475 103.67 63.8349 102.408 62.5722C101.145 61.3094 99.4323 60.6 97.6465 60.6H95.7746C96.9866 58.5632 97.633 56.2368 97.6465 53.8667C97.6586 51.1249 96.83 48.4452 95.2723 46.1889C93.7146 43.9325 91.5026 42.2079 88.9345 41.2474C86.3664 40.287 83.5656 40.1368 80.9096 40.8172C78.2535 41.4976 75.8699 42.9759 74.0798 45.0527C71.8983 42.5088 68.8425 40.8749 65.5154 40.4735C62.1883 40.0721 58.8316 40.9323 56.1077 42.8844C53.3837 44.8365 51.4903 47.7387 50.8012 51.0183C50.112 54.2979 50.6771 57.7166 52.385 60.6H50.5132C48.7274 60.6 47.0147 61.3094 45.752 62.5722C44.4892 63.8349 43.7798 65.5475 43.7798 67.3333V114.467C43.7798 116.252 44.4892 117.965 45.752 119.228C47.0147 120.491 48.7274 121.2 50.5132 121.2ZM50.5132 94.2667H70.7132V114.467H50.5132V94.2667ZM77.4465 114.467V94.2667H97.6465V114.467H77.4465ZM97.6465 87.5333H77.4465V67.3333H97.6465V87.5333ZM84.1798 47.1333C85.9656 47.1333 87.6783 47.8427 88.941 49.1055C90.2038 50.3682 90.9132 52.0809 90.9132 53.8667C90.9132 55.6525 90.2038 57.3651 88.941 58.6279C87.6783 59.8906 85.9656 60.6 84.1798 60.6H77.4465V53.8667C77.4465 52.0809 78.1559 50.3682 79.4186 49.1055C80.6814 47.8427 82.394 47.1333 84.1798 47.1333ZM57.2465 53.8667C57.2465 52.0809 57.9559 50.3682 59.2186 49.1055C60.4814 47.8427 62.194 47.1333 63.9798 47.1333C65.7656 47.1333 67.4783 47.8427 68.741 49.1055C70.0038 50.3682 70.7132 52.0809 70.7132 53.8667V60.6H63.9798C62.194 60.6 60.4814 59.8906 59.2186 58.6279C57.9559 57.3651 57.2465 55.6525 57.2465 53.8667ZM70.7132 67.3333V87.5333H50.5132V67.3333H70.7132Z" fill="#21202E"/>
</svg>
